<?xml version="1.0" encoding="utf-8"?>
<!-- Generator: Adobe Illustrator 23.0.1, SVG Export Plug-In . SVG Version: 6.00 Build 0)  -->
<svg version="1.1" xmlns="http://www.w3.org/2000/svg" xmlns:xlink="http://www.w3.org/1999/xlink" x="0px" y="0px"
	 viewBox="0 0 185 185" style="enable-background:new 0 0 185 185;" xml:space="preserve">
<style type="text/css">
	.st0{fill:#B5A58B;}
	.st1{opacity:0.48;fill:none;stroke:#000000;stroke-width:1.8;stroke-miterlimit:10;}
</style>
<g id="base">
	<path class="st0" d="M37.26,62.25l0.4,0.36c-0.47,0.88-1.29,1.33-2.44,1.33c-0.14,0-0.35-0.01-0.62-0.04
		c-0.69,0.79-1.11,1.98-1.28,3.58c-0.04,0.33-0.06,0.65-0.06,0.96l2.29-0.09l-0.62,0.76h-1.71c-0.17,2.36-1.29,4.07-3.35,5.12
		c-1.18,0.6-2.53,0.91-4.05,0.91c-0.93,0-1.77-0.18-2.5-0.54c-0.38-0.18-0.68-0.43-0.9-0.75s-0.34-0.69-0.34-1.13
		s0.09-0.83,0.27-1.18s0.41-0.61,0.69-0.8s0.62-0.34,1.04-0.45c0.66-0.18,1.49-0.27,2.5-0.27c-0.66-0.87-0.99-1.77-0.99-2.7
		c0-0.68,0.17-1.34,0.5-1.99s0.77-1.2,1.32-1.67s1.19-0.85,1.93-1.13s1.43-0.43,2.07-0.43s1.45,0.13,2.43,0.38s1.69,0.38,2.15,0.38
		S36.87,62.65,37.26,62.25z M23.31,71.8c-0.13,0.28-0.19,0.58-0.19,0.92s0.09,0.63,0.28,0.87s0.43,0.43,0.72,0.57
		c0.58,0.26,1.22,0.4,1.92,0.4s1.36-0.1,1.99-0.29s1.19-0.51,1.69-0.93c1.03-0.87,1.68-2.28,1.93-4.25h-1.89l0.35-0.56l1.6-0.09
		c0.08-0.74,0.23-1.36,0.44-1.85s0.39-0.87,0.53-1.14s0.29-0.5,0.43-0.7c0.23-0.34,0.48-0.66,0.74-0.96
		c-0.9-0.38-1.75-0.56-2.56-0.56s-1.5,0.08-2.06,0.25s-1.07,0.42-1.52,0.74s-0.81,0.75-1.07,1.29s-0.4,1.14-0.4,1.82
		c0,0.67,0.1,1.19,0.31,1.56c0.08,0.15,0.15,0.27,0.21,0.38s0.16,0.22,0.29,0.36s0.25,0.24,0.33,0.31s0.21,0.18,0.39,0.32
		c0.24,0.17,0.46,0.32,0.65,0.45s0.3,0.2,0.31,0.21s0.02,0.02,0.04,0.02l-0.25,0.33c-0.96-0.47-1.78-0.7-2.47-0.7
		C24.62,70.55,23.71,70.97,23.31,71.8z M36.41,74.9c-0.25,0-0.44-0.08-0.58-0.23s-0.21-0.36-0.21-0.63s0.07-0.63,0.21-1.09
		s0.28-0.88,0.41-1.25s0.21-0.63,0.21-0.75s-0.04-0.19-0.12-0.19c-0.21,0-0.54,0.4-0.99,1.21l-0.59-0.34
		c0.86-1.45,1.65-2.18,2.37-2.18c0.49,0,0.74,0.31,0.74,0.93c0,0.18-0.06,0.47-0.18,0.87l-0.63,1.81c-0.06,0.17-0.1,0.32-0.1,0.46
		s0.05,0.21,0.16,0.21c0.2,0,0.57-0.37,1.1-1.11l0.37,0.34c-0.32,0.59-0.69,1.05-1.13,1.41S36.66,74.9,36.41,74.9z M38.91,66.86
		c0,0.24-0.08,0.45-0.24,0.65s-0.37,0.29-0.64,0.29s-0.47-0.08-0.61-0.24s-0.2-0.36-0.2-0.61s0.08-0.46,0.25-0.65S37.86,66,38.12,66
		s0.46,0.08,0.59,0.25S38.91,66.62,38.91,66.86z M40.72,73.03c0.04,0.67,0.49,1.01,1.36,1.01c0.32,0,0.66-0.09,1.01-0.28
		s0.63-0.4,0.85-0.65l0.38,0.25c-0.49,0.81-1.26,1.31-2.33,1.49c-0.23,0.04-0.46,0.05-0.68,0.05c-0.63,0-1.16-0.21-1.58-0.63
		s-0.63-0.93-0.63-1.53s0.18-1.16,0.55-1.67s0.83-0.91,1.38-1.19s1.1-0.42,1.64-0.42s1.01,0.12,1.4,0.37s0.6,0.58,0.61,0.99
		s-0.11,0.77-0.36,1.08s-0.57,0.53-0.96,0.69c-0.77,0.31-1.52,0.47-2.26,0.47L40.72,73.03z M40.66,72.55
		c0.65-0.02,1.17-0.13,1.57-0.31s0.67-0.4,0.83-0.63s0.23-0.49,0.23-0.75s-0.07-0.45-0.2-0.58s-0.28-0.19-0.43-0.19
		c-0.38,0-0.72,0.13-1.03,0.39s-0.55,0.58-0.72,0.95S40.66,72.17,40.66,72.55z M48.57,63.07H50c-0.25,0.43-0.64,1.4-1.16,2.89
		s-1,2.99-1.43,4.5s-0.65,2.43-0.65,2.77s0.04,0.51,0.12,0.51c0.25,0,0.63-0.37,1.15-1.12l0.37,0.35c-0.26,0.45-0.54,0.82-0.83,1.12
		c-0.53,0.54-0.96,0.81-1.28,0.81c-0.6,0-0.9-0.36-0.9-1.08c0-1.07,0.36-2.76,1.07-5.07S47.88,64.55,48.57,63.07z M53.14,73.68
		c-0.62,0.81-1.35,1.22-2.21,1.22c-0.57,0-1.06-0.21-1.46-0.63s-0.6-0.95-0.6-1.6c0-0.87,0.33-1.63,0.98-2.26s1.39-0.95,2.21-0.95
		c0.42,0,0.78,0.08,1.09,0.25s0.5,0.39,0.58,0.68c0.27-1.11,0.66-2.39,1.16-3.85s0.97-2.61,1.4-3.45h1.41
		c-0.54,1.08-1.22,2.9-2.01,5.48s-1.2,4.19-1.2,4.83c0,0.23,0.05,0.34,0.14,0.34c0.23,0,0.61-0.37,1.12-1.12l0.38,0.35
		c-0.37,0.66-0.76,1.14-1.19,1.46s-0.76,0.47-1.02,0.47s-0.45-0.09-0.6-0.28s-0.22-0.45-0.22-0.8c0-0.01,0-0.03,0-0.07
		S53.14,73.7,53.14,73.68z M50.46,72.62c0,0.94,0.36,1.42,1.09,1.42c0.68,0,1.24-0.45,1.68-1.36c0.21-0.43,0.31-0.77,0.31-1.04
		c0-0.95-0.36-1.42-1.08-1.42c-0.48,0-0.93,0.22-1.36,0.66S50.46,71.9,50.46,72.62z M68.77,72.12l0.42,0.4
		c-1.33,1.73-2.93,2.59-4.81,2.59c-1.22,0-2.26-0.4-3.1-1.19c-0.41-0.38-0.73-0.87-0.97-1.46s-0.36-1.27-0.36-2.03
		s0.14-1.55,0.43-2.38s0.69-1.59,1.2-2.29s1.09-1.33,1.75-1.89s1.38-0.99,2.17-1.31s1.62-0.48,2.5-0.48s1.63,0.28,2.27,0.83
		s0.96,1.34,0.96,2.34c0,0.59-0.13,1.21-0.41,1.87c-0.27,0.65-0.62,1.25-1.05,1.78c-0.43,0.53-0.94,0.97-1.53,1.31
		s-1.17,0.52-1.75,0.52s-1.04-0.19-1.38-0.56s-0.51-0.81-0.51-1.31c0-0.86,0.36-1.68,1.07-2.48c0.71-0.8,1.63-1.39,2.75-1.77
		l0.2,0.47c-0.56,0.19-1.09,0.5-1.59,0.94s-0.89,0.91-1.16,1.41c-0.28,0.5-0.42,0.94-0.42,1.31c0,0.77,0.43,1.15,1.28,1.15
		c0.6,0,1.2-0.26,1.8-0.79c0.6-0.53,1.08-1.15,1.44-1.86c0.36-0.71,0.54-1.4,0.54-2.06s-0.22-1.2-0.67-1.62s-1.04-0.63-1.78-0.63
		s-1.5,0.22-2.28,0.67s-1.47,1.02-2.07,1.71c-0.6,0.7-1.09,1.5-1.48,2.4c-0.38,0.91-0.58,1.79-0.58,2.67c0,1.41,0.47,2.45,1.42,3.11
		c0.55,0.39,1.18,0.58,1.88,0.58c0.7,0,1.39-0.17,2.07-0.51S68.29,72.74,68.77,72.12z M70.34,72.67c0-0.44,0.11-0.86,0.32-1.27
		c0.21-0.41,0.49-0.75,0.83-1.03c0.75-0.61,1.51-0.91,2.29-0.91s1.42,0.21,1.92,0.62s0.75,0.94,0.75,1.56s-0.17,1.19-0.51,1.68
		c-0.34,0.5-0.8,0.89-1.36,1.16s-1.18,0.42-1.84,0.42c-0.67,0-1.23-0.21-1.7-0.63C70.58,73.85,70.34,73.32,70.34,72.67z
		 M73.22,74.36c0.27,0,0.52-0.09,0.76-0.26c0.24-0.18,0.42-0.4,0.54-0.69c0.24-0.54,0.36-1.1,0.36-1.67s-0.11-1.01-0.32-1.31
		s-0.51-0.44-0.9-0.44s-0.77,0.25-1.15,0.76c-0.38,0.5-0.57,1.15-0.57,1.92C71.95,73.79,72.38,74.36,73.22,74.36z M79.56,72.29
		c1.22-1.89,2.32-2.84,3.3-2.84c0.33,0,0.57,0.1,0.74,0.3s0.25,0.45,0.25,0.76s-0.14,0.83-0.41,1.58c-0.27,0.75-0.41,1.21-0.41,1.39
		s0.04,0.27,0.13,0.27c0.12,0,0.29-0.12,0.52-0.36s0.43-0.5,0.61-0.77l0.37,0.35c-0.35,0.64-0.74,1.12-1.16,1.45
		c-0.42,0.33-0.76,0.49-1.02,0.49c-0.26,0-0.46-0.09-0.61-0.26s-0.22-0.41-0.22-0.71s0.12-0.79,0.36-1.46
		c0.24-0.68,0.36-1.16,0.36-1.44s-0.1-0.43-0.29-0.43c-0.22,0-0.49,0.14-0.79,0.43s-0.6,0.63-0.89,1.04
		c-0.46,0.66-0.92,1.41-1.4,2.27l-0.24,0.42h-1.24l0.27-0.83c0.51-1.52,0.76-2.43,0.76-2.71S78.5,70.8,78.4,70.8
		c-0.17,0-0.37,0.2-0.61,0.61c-0.05,0.09-0.1,0.17-0.13,0.22s-0.08,0.12-0.12,0.2c-0.04,0.08-0.07,0.13-0.08,0.15l-0.59-0.34
		c0.46-0.74,0.88-1.29,1.26-1.65s0.77-0.53,1.17-0.53c0.18,0,0.34,0.08,0.47,0.23c0.13,0.15,0.2,0.34,0.2,0.55s-0.02,0.43-0.05,0.64
		s-0.07,0.38-0.11,0.52s-0.09,0.31-0.15,0.53C79.59,72.14,79.56,72.26,79.56,72.29z M86.31,69.65c0.6-1.88,1.22-3.45,1.85-4.71
		l1.09,0.09c-0.06,0.19-0.22,0.64-0.47,1.35c-0.54,1.58-0.9,2.67-1.05,3.27h1.38l-0.14,0.58h-1.42c-0.54,1.66-0.81,2.68-0.81,3.04
		s0.04,0.54,0.11,0.54c0.07,0,0.14-0.01,0.2-0.04c0.16-0.09,0.5-0.52,1.02-1.28l0.36,0.33c-0.39,0.71-0.8,1.24-1.21,1.59
		s-0.76,0.51-1.03,0.51s-0.47-0.09-0.61-0.28s-0.21-0.43-0.21-0.72c0-0.74,0.26-1.97,0.78-3.67h-0.92l0.14-0.58H86.31z M93.88,70.6
		c-0.22,0-0.49,0.14-0.79,0.43s-0.6,0.63-0.89,1.04c-0.46,0.66-0.92,1.41-1.4,2.27l-0.24,0.42h-1.24l0.27-0.83
		c0.51-1.52,0.76-2.43,0.76-2.71s-0.05-0.43-0.14-0.43c-0.17,0-0.37,0.2-0.61,0.61c-0.05,0.09-0.1,0.17-0.13,0.22
		s-0.08,0.12-0.12,0.2c-0.04,0.08-0.07,0.13-0.08,0.15l-0.59-0.34c0.46-0.74,0.88-1.29,1.26-1.65s0.77-0.53,1.17-0.53
		c0.18,0,0.34,0.08,0.47,0.23c0.13,0.15,0.2,0.33,0.2,0.54s-0.01,0.39-0.04,0.55s-0.05,0.31-0.08,0.44s-0.07,0.3-0.12,0.48
		s-0.1,0.33-0.13,0.43c-0.03,0.1-0.08,0.23-0.13,0.4s-0.08,0.27-0.1,0.3c0.11-0.21,0.28-0.52,0.54-0.93s0.42-0.67,0.49-0.77
		s0.18-0.25,0.32-0.42s0.25-0.31,0.36-0.41c0.1-0.1,0.22-0.21,0.37-0.33c0.14-0.13,0.28-0.22,0.41-0.29
		c0.33-0.15,0.64-0.23,0.95-0.23s0.55,0.09,0.73,0.27c0.18,0.18,0.28,0.39,0.28,0.62s-0.08,0.45-0.22,0.62
		c-0.15,0.18-0.32,0.27-0.52,0.27s-0.35-0.03-0.46-0.1s-0.19-0.14-0.23-0.22C94.08,70.71,93.98,70.6,93.88,70.6z M95.76,72.67
		c0-0.44,0.11-0.86,0.32-1.27c0.21-0.41,0.49-0.75,0.83-1.03c0.75-0.61,1.51-0.91,2.29-0.91s1.42,0.21,1.92,0.62
		s0.75,0.94,0.75,1.56s-0.17,1.19-0.51,1.68c-0.34,0.5-0.8,0.89-1.36,1.16s-1.18,0.42-1.84,0.42c-0.67,0-1.23-0.21-1.7-0.63
		C96,73.85,95.76,73.32,95.76,72.67z M98.64,74.36c0.27,0,0.52-0.09,0.76-0.26c0.24-0.18,0.42-0.4,0.54-0.69
		c0.24-0.54,0.36-1.1,0.36-1.67s-0.11-1.01-0.32-1.31s-0.51-0.44-0.9-0.44s-0.77,0.25-1.15,0.76c-0.38,0.5-0.57,1.15-0.57,1.92
		C97.37,73.79,97.79,74.36,98.64,74.36z M105.85,63.07h1.42c-0.25,0.43-0.64,1.4-1.16,2.89s-1,2.99-1.43,4.5
		c-0.43,1.51-0.65,2.43-0.65,2.77s0.04,0.51,0.12,0.51c0.25,0,0.63-0.37,1.15-1.12l0.37,0.35c-0.26,0.45-0.54,0.82-0.83,1.12
		c-0.53,0.54-0.96,0.81-1.28,0.81c-0.6,0-0.9-0.36-0.9-1.08c0-1.07,0.36-2.76,1.07-5.07C104.45,66.44,105.16,64.55,105.85,63.07z
		 M117.19,74.35c-0.57,0.25-1.15,0.43-1.74,0.54c-0.59,0.11-1.15,0.16-1.67,0.16s-1-0.03-1.41-0.08c-0.42-0.06-0.84-0.15-1.25-0.29
		c-0.41-0.14-0.77-0.31-1.07-0.53c-0.67-0.47-1-1.15-1-2.01c0-0.52,0.12-1,0.36-1.45s0.55-0.82,0.94-1.11
		c0.82-0.63,1.72-0.95,2.69-0.95c1.17,0,2.03,0.34,2.6,1.03c0.28,0.35,0.42,0.76,0.42,1.26s-0.23,0.92-0.7,1.28
		c-0.46,0.36-0.96,0.54-1.47,0.54c-0.12,0-0.18-0.06-0.18-0.19s0.06-0.22,0.18-0.27s0.26-0.11,0.42-0.16s0.33-0.11,0.49-0.18
		c0.4-0.18,0.61-0.48,0.61-0.88s-0.19-0.71-0.56-0.92c-0.37-0.21-1.02-0.31-1.94-0.31s-1.63,0.23-2.14,0.7s-0.76,1.02-0.76,1.67
		c0,0.85,0.38,1.45,1.13,1.81c0.67,0.32,1.48,0.48,2.42,0.48c1.61,0,2.92-0.46,3.91-1.38c0.7-0.64,1.05-1.46,1.05-2.43
		c0-0.59-0.21-1.15-0.62-1.71c-0.18-0.25-0.38-0.49-0.61-0.73s-0.45-0.48-0.67-0.72s-0.42-0.48-0.61-0.72
		c-0.42-0.53-0.62-1.02-0.62-1.48s0.08-0.85,0.22-1.18c0.15-0.33,0.35-0.62,0.6-0.86s0.54-0.45,0.86-0.63
		c0.65-0.36,1.34-0.54,2.07-0.54c0.63,0,1.22,0.15,1.77,0.46c0.6,0.33,0.9,0.83,0.9,1.5c0,0.26-0.09,0.5-0.28,0.69
		s-0.4,0.3-0.63,0.3s-0.43-0.07-0.58-0.2c-0.15-0.13-0.22-0.29-0.22-0.45s0.07-0.35,0.22-0.54c0.14-0.19,0.21-0.35,0.21-0.47
		s-0.05-0.24-0.16-0.35s-0.24-0.18-0.4-0.24c-0.33-0.1-0.63-0.15-0.9-0.15c-0.62,0-1.15,0.18-1.6,0.55s-0.67,0.88-0.67,1.54
		c0,0.36,0.22,0.78,0.67,1.26c0.2,0.21,0.42,0.44,0.65,0.67c0.24,0.24,0.48,0.49,0.72,0.76s0.46,0.55,0.66,0.83
		c0.45,0.63,0.67,1.29,0.67,1.97s-0.13,1.29-0.4,1.85s-0.62,1.01-1.06,1.37S117.77,74.1,117.19,74.35z M121.29,71.72l-0.57-0.34
		c0.29-0.51,0.66-0.96,1.09-1.34s0.83-0.58,1.17-0.58c0.56,0,0.84,0.25,0.84,0.76c0,0.21-0.14,0.72-0.44,1.54
		c-0.29,0.81-0.43,1.33-0.43,1.55s0.01,0.36,0.04,0.42s0.09,0.09,0.19,0.09c0.53,0,1.08-0.2,1.65-0.6c0.56-0.4,0.93-0.85,1.1-1.33
		l0.62-1.79c0.06-0.18,0.16-0.33,0.3-0.43s0.26-0.16,0.39-0.16c0.12,0,0.23,0.04,0.31,0.12c0.08,0.08,0.12,0.19,0.12,0.33
		s-0.03,0.28-0.08,0.42l-0.67,1.95c-0.37,1.15-0.94,2.28-1.71,3.39c0.67,0.07,1.27,0.19,1.8,0.36l-0.07,0.49
		c-0.81-0.16-1.52-0.26-2.14-0.29c-0.57,0.73-1.15,1.32-1.75,1.75s-1.11,0.65-1.55,0.65c-0.44,0-0.77-0.09-0.99-0.27
		c-0.22-0.18-0.33-0.42-0.33-0.73s0.12-0.59,0.35-0.85s0.55-0.46,0.94-0.62c0.8-0.33,1.71-0.52,2.74-0.56
		c0.08-0.09,0.28-0.42,0.59-0.99s0.48-0.92,0.5-1.07c-1.04,0.88-1.95,1.32-2.74,1.32c-0.32,0-0.56-0.11-0.7-0.33
		s-0.22-0.49-0.22-0.81s0.12-0.87,0.36-1.66s0.37-1.23,0.37-1.34s-0.03-0.16-0.07-0.16c-0.05,0-0.1,0.01-0.16,0.04
		s-0.12,0.07-0.17,0.12c-0.06,0.06-0.11,0.11-0.15,0.16s-0.1,0.12-0.15,0.21s-0.1,0.16-0.13,0.2
		C121.41,71.53,121.33,71.66,121.29,71.72z M123.83,76.26c-0.47,0.03-0.96,0.11-1.45,0.25c-0.95,0.27-1.42,0.59-1.42,0.95
		c0,0.22,0.13,0.33,0.4,0.33s0.71-0.19,1.32-0.58S123.68,76.5,123.83,76.26z M128.73,74.7c-0.38-0.13-0.66-0.29-0.82-0.48
		s-0.25-0.39-0.25-0.61s0.06-0.41,0.18-0.55s0.29-0.22,0.49-0.22c0.2,0,0.38,0.06,0.54,0.18c0.15,0.12,0.23,0.29,0.23,0.51
		s-0.13,0.4-0.4,0.55c0.22,0.19,0.56,0.29,1.02,0.29c0.99,0,1.49-0.28,1.49-0.84c0-0.35-0.31-0.63-0.94-0.84
		c-0.26-0.09-0.52-0.18-0.78-0.28c-0.26-0.1-0.49-0.25-0.68-0.44s-0.3-0.43-0.32-0.7c0-0.4,0.13-0.74,0.4-1.01
		c0.5-0.53,1.24-0.79,2.23-0.79c0.49,0,0.92,0.09,1.29,0.28s0.56,0.42,0.56,0.72s-0.07,0.5-0.22,0.63
		c-0.15,0.13-0.32,0.19-0.52,0.19s-0.37-0.05-0.5-0.16c-0.14-0.11-0.21-0.26-0.21-0.45s0.11-0.36,0.34-0.5
		c-0.14-0.1-0.38-0.15-0.73-0.15s-0.66,0.05-0.93,0.15s-0.41,0.24-0.41,0.42s0.1,0.32,0.3,0.44c0.2,0.12,0.45,0.23,0.73,0.33
		s0.57,0.21,0.86,0.34s0.53,0.31,0.73,0.55c0.2,0.24,0.3,0.54,0.3,0.89s-0.14,0.67-0.43,0.96c-0.54,0.54-1.29,0.82-2.23,0.82
		C129.55,74.9,129.11,74.83,128.73,74.7z M134.87,69.65c0.6-1.88,1.22-3.45,1.85-4.71l1.09,0.09c-0.06,0.19-0.22,0.64-0.47,1.35
		c-0.54,1.58-0.9,2.67-1.05,3.27h1.38l-0.14,0.58h-1.42c-0.54,1.66-0.81,2.68-0.81,3.04s0.04,0.54,0.11,0.54
		c0.07,0,0.14-0.01,0.2-0.04c0.16-0.09,0.5-0.52,1.02-1.28l0.36,0.33c-0.39,0.71-0.8,1.24-1.21,1.59s-0.76,0.51-1.03,0.51
		s-0.47-0.09-0.61-0.28s-0.21-0.43-0.21-0.72c0-0.74,0.26-1.97,0.78-3.67h-0.92l0.14-0.58H134.87z M139.24,73.03
		c0.04,0.67,0.49,1.01,1.36,1.01c0.32,0,0.66-0.09,1.01-0.28c0.35-0.18,0.63-0.4,0.85-0.65l0.38,0.25
		c-0.49,0.81-1.26,1.31-2.33,1.49c-0.23,0.04-0.46,0.05-0.68,0.05c-0.63,0-1.16-0.21-1.58-0.63s-0.63-0.93-0.63-1.53
		s0.18-1.16,0.55-1.67s0.83-0.91,1.38-1.19c0.55-0.28,1.1-0.42,1.64-0.42s1.01,0.12,1.4,0.37c0.39,0.25,0.6,0.58,0.61,0.99
		c0.01,0.42-0.11,0.77-0.36,1.08s-0.57,0.53-0.96,0.69c-0.77,0.31-1.52,0.47-2.26,0.47L139.24,73.03z M139.19,72.55
		c0.65-0.02,1.17-0.13,1.57-0.31c0.4-0.18,0.67-0.4,0.83-0.63s0.23-0.49,0.23-0.75s-0.07-0.45-0.2-0.58s-0.28-0.19-0.43-0.19
		c-0.38,0-0.72,0.13-1.03,0.39c-0.31,0.26-0.55,0.58-0.72,0.95S139.19,72.17,139.19,72.55z M149.43,74.76h-1.3l0.17-0.58
		c0.06-0.23,0.16-0.56,0.32-1c0.34-0.96,0.51-1.7,0.51-2.23c0-0.23-0.1-0.34-0.29-0.34c-0.24,0-0.52,0.14-0.85,0.43
		c-0.32,0.28-0.64,0.63-0.94,1.04c-0.5,0.69-0.99,1.44-1.48,2.27l-0.25,0.42h-1.24l0.27-0.83c0.51-1.52,0.76-2.43,0.76-2.71
		s-0.05-0.43-0.14-0.43c-0.17,0-0.37,0.2-0.61,0.61c-0.05,0.09-0.1,0.17-0.13,0.22s-0.08,0.12-0.12,0.2
		c-0.04,0.08-0.07,0.13-0.08,0.15l-0.59-0.34c0.46-0.74,0.88-1.29,1.26-1.65s0.77-0.53,1.17-0.53c0.18,0,0.34,0.08,0.47,0.23
		c0.13,0.15,0.2,0.33,0.2,0.54s-0.01,0.39-0.04,0.55s-0.05,0.31-0.08,0.44s-0.07,0.3-0.12,0.48s-0.1,0.33-0.13,0.43
		c-0.03,0.1-0.08,0.23-0.13,0.4s-0.08,0.27-0.1,0.3c0.12-0.21,0.31-0.51,0.57-0.92s0.44-0.67,0.52-0.78s0.2-0.25,0.34-0.42
		s0.26-0.31,0.37-0.41c0.11-0.1,0.24-0.21,0.39-0.33s0.3-0.22,0.43-0.28c0.33-0.16,0.66-0.24,1-0.24s0.59,0.1,0.77,0.29
		s0.26,0.41,0.26,0.67s-0.04,0.52-0.12,0.8c-0.08,0.28-0.19,0.6-0.33,0.96s-0.23,0.61-0.27,0.74c0.56-0.91,0.99-1.56,1.29-1.93
		c0.81-1.01,1.62-1.52,2.42-1.52c0.39,0,0.67,0.09,0.84,0.28s0.25,0.44,0.25,0.76s-0.14,0.86-0.41,1.6s-0.41,1.21-0.41,1.38
		s0.05,0.25,0.16,0.25c0.23,0,0.61-0.37,1.12-1.12l0.38,0.35c-0.35,0.62-0.73,1.09-1.14,1.43s-0.77,0.51-1.07,0.51
		c-0.3,0-0.5-0.1-0.62-0.29s-0.18-0.42-0.18-0.69s0.12-0.74,0.35-1.42s0.35-1.2,0.35-1.56c0-0.23-0.1-0.34-0.31-0.34
		c-0.59,0-1.43,0.86-2.54,2.58C149.93,73.88,149.61,74.4,149.43,74.76z"/>
</g>
</svg>
